<svg xmlns="http://www.w3.org/2000/svg" viewBox="0 0 500.63 237.91">
    <defs>
        <style>
            .cls-1{fill:none;stroke:#939598;stroke-miterlimit:10;stroke-width:1.26px;}.cls-2{fill:#2ed9c3;}.cls-3{fill:#939598;}
        </style>
    </defs>
    <title>Asset 1</title>
    <g id="Layer_2" data-name="Layer 2">
        <g id="Layer_1-2" data-name="Layer 1">
            <rect fill="none" stroke="#939598" class="cls-1" x="0.63" y="0.63" width="193.92" height="181.91" rx="5.67"/>
            <path fill="#2ed9c3" class="cls-2" d="M149.69,25.56c-23.2-6-45.56,8.79-52.1,18.7-6.54-9.91-28.89-24.72-52.1-18.7C18.75,32.5,18.31,59.66,18.16,64.29c-1.44,41,78.26,95.17,79.21,94.71h.44c1,.46,80.65-53.68,79.21-94.71C176.87,59.66,176.43,32.5,149.69,25.56Z"/>
            <path fill="#2ed9c3" class="cls-2" d="M320.61,1.25h4.05v128h16.43V133H324.66v45.76h-3.8V133H220V129.2Zm.25,128V12.89l.76-7.08h-.25l-3.54,5.81-93,117.58Z"/>
            <path fill="#2ed9c3" class="cls-2" d="M376.74,130.71V2h4V131c0,30.59,30.85,45.76,57.9,45.76s57.91-15.17,57.91-46V2h4V131c0,32.61-32.87,49.81-61.95,49.81C409.35,180.78,376.74,163.58,376.74,130.71Z"/>
            <path fill="#939598" class="cls-3" d="M1,236.24V204.09a1.21,1.21,0,0,1,.39-.88,1.23,1.23,0,0,1,.89-.39,1.23,1.23,0,0,1,.88.39,1.21,1.21,0,0,1,.39.88v14.8h22v-14.8a1.17,1.17,0,0,1,.39-.88,1.21,1.21,0,0,1,.88-.39,1.23,1.23,0,0,1,.88.39,1.21,1.21,0,0,1,.39.88v32.15a1.21,1.21,0,0,1-.39.88,1.23,1.23,0,0,1-.88.39,1.21,1.21,0,0,1-.88-.39,1.17,1.17,0,0,1-.39-.88v-15h-22v15a1.21,1.21,0,0,1-.39.88,1.23,1.23,0,0,1-.88.39,1.23,1.23,0,0,1-.89-.39A1.21,1.21,0,0,1,1,236.24Z"/>
            <path fill="#939598" class="cls-3" d="M43.89,237.32a1.18,1.18,0,0,1-.88-.4,1.21,1.21,0,0,1-.39-.88V204.29a1.25,1.25,0,0,1,.39-.89,1.21,1.21,0,0,1,.88-.39H66a1.2,1.2,0,0,1,1.18,1.18,1.13,1.13,0,0,1-.35.83,1.1,1.1,0,0,1-.83.34H45.16v13.48H63.84a1.17,1.17,0,0,1,.83.34A1.14,1.14,0,0,1,65,220a1.12,1.12,0,0,1-.34.83,1.13,1.13,0,0,1-.83.34H45.16V235H66.29a1.18,1.18,0,0,1,1.17,1.18,1.1,1.1,0,0,1-.34.83,1.14,1.14,0,0,1-.83.35Z"/>
            <path fill="#939598" class="cls-3" d="M77.51,236.44a1.75,1.75,0,0,1,.2-.79l14.65-31.76a1.85,1.85,0,0,1,1.71-1.22h.1a1.86,1.86,0,0,1,1.72,1.22l14.6,31.66a1.81,1.81,0,0,1,.2.79,1.09,1.09,0,0,1-.37.83,1.2,1.2,0,0,1-.86.34,1.38,1.38,0,0,1-1.27-1l-4-8.82H83.93l-4,8.87a1.29,1.29,0,0,1-1.22.93,1.2,1.2,0,0,1-.84-.31A1,1,0,0,1,77.51,236.44Zm7.5-11h18.08l-9-19.85Z"/>
            <path fill="#939598" class="cls-3" d="M123,236V204.09a1.21,1.21,0,0,1,.39-.88,1.23,1.23,0,0,1,.88-.39,1.21,1.21,0,0,1,.88.39,1.18,1.18,0,0,1,.4.88V235H144.7a1.13,1.13,0,0,1,.83.35,1.14,1.14,0,0,1,.35.83,1.11,1.11,0,0,1-.35.83,1.13,1.13,0,0,1-.83.35H124.26A1.36,1.36,0,0,1,123,236Z"/>
            <path fill="#939598" class="cls-3" d="M162.34,236.24V205.36h-11a1.14,1.14,0,0,1-.84-.34,1.12,1.12,0,0,1-.34-.83,1.1,1.1,0,0,1,.34-.83,1.15,1.15,0,0,1,.84-.35h24.5a1.14,1.14,0,0,1,.83.35,1.1,1.1,0,0,1,.34.83,1.12,1.12,0,0,1-.34.83,1.13,1.13,0,0,1-.83.34h-11v30.88a1.21,1.21,0,0,1-.39.88,1.23,1.23,0,0,1-.88.39,1.25,1.25,0,0,1-.89-.39A1.21,1.21,0,0,1,162.34,236.24Z"/>
            <path fill="#939598" class="cls-3" d="M189,236.24V204.09a1.36,1.36,0,0,1,1.28-1.27,1.23,1.23,0,0,1,.88.39,1.21,1.21,0,0,1,.39.88v14.8h22v-14.8a1.27,1.27,0,0,1,2.54,0v32.15a1.27,1.27,0,0,1-2.54,0v-15h-22v15a1.21,1.21,0,0,1-.39.88,1.23,1.23,0,0,1-.88.39,1.36,1.36,0,0,1-1.28-1.27Z"/>
            <path fill="#939598" class="cls-3" d="M249.77,236.24v-32a1.25,1.25,0,0,1,.39-.89A1.23,1.23,0,0,1,251,203H273a1.13,1.13,0,0,1,.83.35,1.1,1.1,0,0,1,.34.83,1.16,1.16,0,0,1-1.17,1.17H252.32v14.07h18.42a1.18,1.18,0,1,1,0,2.35H252.32v14.46a1.18,1.18,0,0,1-.4.88,1.21,1.21,0,0,1-.88.39,1.23,1.23,0,0,1-.88-.39A1.21,1.21,0,0,1,249.77,236.24Z"/>
            <path fill="#939598" class="cls-3" d="M313.48,232.66a17.39,17.39,0,0,1-24.85.05,17.7,17.7,0,0,1-4.8-12.45v-.1a17.77,17.77,0,0,1,4.85-12.49,17.39,17.39,0,0,1,24.85,0,17.7,17.7,0,0,1,4.8,12.45v.09A17.74,17.74,0,0,1,313.48,232.66Zm-22.81-1.57a14.38,14.38,0,0,0,20.87,0,15.4,15.4,0,0,0,4.14-10.88v-.1a15.41,15.41,0,0,0-4.19-10.92,14.38,14.38,0,0,0-20.87-.05,15.4,15.4,0,0,0-4.14,10.88v.09A15.42,15.42,0,0,0,290.67,231.09Z"/>
            <path fill="#939598" class="cls-3" d="M331.42,236.24v-32a1.25,1.25,0,0,1,.39-.89,1.21,1.21,0,0,1,.88-.39h13.13q6.27,0,9.66,3.38a8.69,8.69,0,0,1,2.6,6.37v.1a8.59,8.59,0,0,1-2.75,6.67,13.27,13.27,0,0,1-7.3,3.13l9.75,12.65a1.47,1.47,0,0,1,.39.88,1.33,1.33,0,0,1-1.32,1.32,1.39,1.39,0,0,1-1.13-.68l-10.53-13.72H334v13.13a1.27,1.27,0,0,1-2.54,0ZM334,220.8h11.57a11.59,11.59,0,0,0,7.2-2.11,6.77,6.77,0,0,0,2.8-5.73v-.1a6.57,6.57,0,0,0-2.6-5.49q-2.6-2-7.25-2H334Z"/>
            <path fill="#939598" class="cls-3" d="M401.54,236.24v-12.5l-13.38-18.86a1.54,1.54,0,0,1-.24-.79,1.21,1.21,0,0,1,.39-.88,1.27,1.27,0,0,1,.93-.39,1.41,1.41,0,0,1,1.18.73l12.45,17.89,12.49-17.89a1.47,1.47,0,0,1,1.13-.73,1.26,1.26,0,0,1,.88.36,1.15,1.15,0,0,1,.39.86,1.91,1.91,0,0,1-.39,1l-13.28,18.67v12.55a1.21,1.21,0,0,1-.39.88,1.23,1.23,0,0,1-.88.39,1.21,1.21,0,0,1-.88-.39A1.18,1.18,0,0,1,401.54,236.24Z"/>
            <path fill="#939598" class="cls-3" d="M455.06,232.66a17.39,17.39,0,0,1-24.85.05,17.7,17.7,0,0,1-4.8-12.45v-.1a17.77,17.77,0,0,1,4.85-12.49,17.39,17.39,0,0,1,24.85,0,17.7,17.7,0,0,1,4.8,12.45v.09A17.74,17.74,0,0,1,455.06,232.66Zm-22.81-1.57a14.38,14.38,0,0,0,20.87,0,15.4,15.4,0,0,0,4.14-10.88v-.1a15.41,15.41,0,0,0-4.19-10.92,14.38,14.38,0,0,0-20.87-.05,15.4,15.4,0,0,0-4.14,10.88v.09A15.42,15.42,0,0,0,432.25,231.09Z"/>
            <path fill="#939598" class="cls-3" d="M486.52,237.86A13.78,13.78,0,0,1,476.33,234q-3.87-3.88-3.87-10.93v-19a1.26,1.26,0,0,1,.36-.88,1.26,1.26,0,0,1,1.82,0,1.27,1.27,0,0,1,.37.88v18.72q0,6,3.08,9.39a12.54,12.54,0,0,0,16.91.14q3-3.21,3-9.28v-19a1.23,1.23,0,0,1,.37-.88,1.17,1.17,0,0,1,.9-.39,1.21,1.21,0,0,1,.91.39,1.27,1.27,0,0,1,.37.88v18.67q0,7.2-3.83,11.15T486.52,237.86Z"/>
        </g>
    </g>
</svg>
